. 
  
http://www.torrentday.com/        :     The Hottest Private Tracker On The Net!!!


               www . TorrentDay . Com 
(((((((((((((= Enjoy No RAR releases =))))))))))))))))))))


...................................NFO:....................................

.*******************************************************************************
            And.God.Created.The.Woman.1956.Criterion.DVDRip.X264-BARC0DE
*******************************************************************************

-------------------------------------------------------------------------------
                              General Information
-------------------------------------------------------------------------------
Type.................: Movie
Name.................: ...And God Created Woman (Et Dieu... cra la femme (original title)
Movie Information....: http://www.imdb.com/title/tt0049189/
Genre................: Drama | Romance
-------------------------------------------------------------------------------
                                    PLOT
-------------------------------------------------------------------------------
In sunny St. Tropez, a young sexpot loves one brother but marries the other.

-------------------------------------------------------------------------------
                                    CAST
-------------------------------------------------------------------------------
Brigitte Bardot	... 	Juliete Hardy
Curd Jrgens	... 	Eric Carradine (as Curd Jurgens)
Jean-Louis Trintignant	... 	Michel Tardieu
Jane Marken	... 	Madame Morin (as Jeanne Marken)
Jean Tissier	... 	M. Vigier-Lefranc
Isabelle Corey	... 	Lucienne
Jacqueline Ventura	... 	Mme Vigier-Lefranc
Jacques Ciron	... 	Le secrtaire d'Eric
Paul Faivre	... 	M. Morin
Jany Mourey	... 	Le dlgue de l'vch
Philippe Grenier	... 	Perri

-------------------------------------------------------------------------------
                                    MEDiA iNFO
-------------------------------------------------------------------------------

General
Complete name                    : And.God.Created.The.Woman.1956.Criterion.DVDRip.X264-BARC0DE.mkv
Format                           : Matroska
File size                        : 1.10 GiB
Duration                         : 1h 31mn
Overall bit rate                 : 1 720 Kbps


Video
ID                               : 1
Format                           : AVC
Format/Info                      : Advanced Video Codec
Format profile                   : High@L3.0
Format settings, CABAC           : Yes
Format settings, ReFrames        : 3 frames
Muxing mode                      : Container profile=Unknown@3.0
Codec ID                         : V_MPEG4/ISO/AVC
Duration                         : 1h 31mn
Bit rate                         : 1 580 Kbps
Width                            : 720 pixels
Height                           : 304 pixels
Display aspect ratio             : 2.35:1
Frame rate                       : 23.976 fps
Color space                      : YUV
Chroma subsampling               : 4:2:0
Bit depth                        : 8 bits
Scan type                        : Progressive
Bits/(Pixel*Frame)               : 0.301
Stream size                      : 1 020 MiB (91%)
Writing library                  : x264 core 79


Audio
ID                               : 2
Format                           : AC-3
Format/Info                      : Audio Coding 3
Mode extension                   : CM (complete main)
Codec ID                         : A_AC3
Duration                         : 1h 31mn
Bit rate mode                    : Constant
Bit rate                         : 128 Kbps
Channel(s)                       : 1 channel
Channel positions                : Front: C
Sampling rate                    : 48.0 KHz
Stream size                      : 83.8 MiB (7%)
Language                         : English

Text
ID                               : 3
Format                           : VobSub
Codec ID                         : S_VOBSUB
Codec ID/Info                    : The same subtitle format used on DVDs
Language                         : English

Menu
00:00:00.000                     : Chapter 1
00:02:31.649                     : Chapter 2
00:05:54.718                     : Chapter 3
00:10:06.228                     : Chapter 4
00:12:07.891                     : Chapter 5
00:16:55.845                     : Chapter 6
00:23:13.373                     : Chapter 7
00:26:11.125                     : Chapter 8
00:31:28.200                     : Chapter 9
00:35:16.637                     : Chapter 10
00:39:28.113                     : Chapter 11
00:43:00.108                     : Chapter 12
00:45:04.157                     : Chapter 13
00:50:54.749                     : Chapter 14
00:57:58.873                     : Chapter 15
01:00:20.764                     : Chapter 16
01:04:45.946                     : Chapter 17
01:10:40.000                     : Chapter 18
01:15:35.428                     : Chapter 19
01:21:47.458                     : Chapter 20
01:28:56.261                     : Chapter 21